<svg version="1.1" width="348" height="237" xmlns="http://www.w3.org/2000/svg" xmlns:xlink="http://www.w3.org/1999/xlink">
  <!-- Exported by Scratch - http://scratch.mit.edu/ -->
  <g id="ID0.02210929337888956" transform="matrix(0.7549869418144226, 0.6557398438453674, -0.6557398438453674, 0.7549869418144226, 137.95, -65.35)">
    <path id="ID0.6615138123743236" fill="#272525" d="M 58.812 69.148 C 47.382 76.420 54.982 86.381 52.107 89.129 C 48.075 92.984 43.184 83.557 44.279 77.787 C 46.025 68.588 55.816 64.975 55.816 64.975 C 55.816 64.975 58.835 67.771 58.812 69.148 L 58.812 69.148 L 58.812 69.148 L 58.812 69.148 L 58.812 69.148 L 58.812 69.148 L 58.812 69.148 L 58.812 69.148 L 58.812 69.148 Z " transform="matrix(2.550601005554199, 0.4998147487640381, -0.4998147487640381, 2.550601005554199, 28.2, -39.4)"/>
    <path id="ID0.19191409228369594" fill="#FF0000" d="M 55.734 66.903 L 57.138 68.554 C 54.630 70.041 52.100 72.313 50.666 75.657 C 49.164 79.158 51.387 87.037 49.977 87.155 C 46.261 87.467 41.965 73.337 55.734 66.903 L 55.734 66.903 L 55.734 66.903 L 55.734 66.903 L 55.734 66.903 L 55.734 66.903 L 55.734 66.903 L 55.734 66.903 L 55.734 66.903 Z " transform="matrix(2.550601005554199, 0.4998147487640381, -0.4998147487640381, 2.550601005554199, 28.2, -39.4)"/>
  </g>
  <path id="ID0.19590965565294027" fill="none" d="M 61.965 31.297 C 57.658 28.643 55.082 21.164 54.898 17.010 " transform="matrix(2.599111557006836, 0, 0, 2.599111557006836, 0, 0)"/>
  <path id="ID0.3219024804420769" fill="none" stroke="#272525" stroke-width="3.031" d="M 61.965 31.297 C 57.658 28.643 55.082 21.164 54.898 17.010 " transform="matrix(2.599111557006836, 0, 0, 2.599111557006836, 0, 0)"/>
  <path id="ID0.9153673928231001" fill="none" d="M 71.145 30.875 C 70.499 25.858 74.690 19.148 77.802 16.391 " transform="matrix(2.599111557006836, 0, 0, 2.599111557006836, 0, 0)"/>
  <path id="ID0.7677619978785515" fill="none" stroke="#272525" stroke-width="3.031" d="M 71.145 30.875 C 70.499 25.858 74.690 19.148 77.802 16.391 " transform="matrix(2.599111557006836, 0, 0, 2.599111557006836, 0, 0)"/>
  <path id="ID0.9208156592212617" fill="#FF0000" d="M 84.912 46.546 C 89.564 49.043 92.991 50.561 98.230 49.679 C 101.558 49.092 103.762 47.820 105.671 44.979 C 106.699 43.461 106.577 41.029 108.412 41.063 C 119.086 41.258 129.906 34.502 132.306 23.045 C 133.138 18.932 132.648 15.064 131.327 11.098 C 129.222 4.684 125.059 1.649 118.304 2.481 C 115.414 2.824 116.589 7.622 115.660 10.315 C 114.728 13.008 111.938 13.301 111.153 15.994 C 110.665 17.708 111.448 18.883 111.546 20.695 C 111.742 24.220 107.531 26.080 108.217 29.116 C 104.006 27.451 106.846 25.493 106.846 23.045 C 106.846 20.792 105.328 19.617 105.475 17.365 C 105.621 15.113 107.140 13.938 106.846 11.686 C 98.279 11 90.690 19.569 92.746 27.941 C 93.922 32.641 102.832 36.852 99.014 39.691 C 95.293 42.483 91.131 44.392 86.871 42.629 C 86.724 44.637 86.087 44.979 84.912 46.546 L 84.912 46.546 L 84.912 46.546 L 84.912 46.546 L 84.912 46.546 L 84.912 46.546 L 84.912 46.546 L 84.912 46.546 L 84.912 46.546 Z " transform="matrix(2.599111557006836, 0, 0, 2.599111557006836, 0, 0)"/>
  <path id="ID0.7105530607514083" fill="#272525" d="M 110.912 21.234 C 110.863 24.914 106.719 24.243 107.539 28.928 C 107.646 29.542 107.383 30.271 108.024 30.687 C 108.987 30.318 108.243 28.702 108.703 27.649 C 109.969 24.743 112.711 25.530 113.413 22.545 C 114.091 19.668 110.831 15.791 113.780 13.770 C 114.749 13.106 115.769 13.029 116.327 11.833 C 117.563 9.178 115.209 6.530 118.249 4.373 C 120.536 2.751 122.854 3.446 125.134 4.844 C 136.260 11.666 129.948 35.289 114.718 38.924 C 112.526 39.447 109.831 39.223 107.598 39.056 C 101.167 51.524 90.539 48.935 85.975 46.699 C 85.107 46.273 85.768 47.037 84.604 47.419 C 89.180 51.927 104.099 53.364 108.556 41.974 C 124.251 43.506 131.587 32.023 133.405 23.165 C 135.312 13.873 131.795 2.202 120.805 0.069 C 118.701 -0.339 115.839 1.136 114.691 3.580 C 113.216 6.719 116.739 10.660 112.088 12.616 C 107.921 14.368 110.936 19.379 110.912 21.234 L 110.912 21.234 L 110.912 21.234 L 110.912 21.234 L 110.912 21.234 L 110.912 21.234 L 110.912 21.234 L 110.912 21.234 L 110.912 21.234 Z " transform="matrix(2.599111557006836, 0, 0, 2.599111557006836, 0, 0)"/>
  <path id="ID0.46882958710193634" fill="#272525" d="M 98.081 36.889 C 99.042 37.695 100.206 35.790 99.055 34.988 C 93.805 31.330 92.702 26.113 94.529 20.149 C 95.535 16.868 103.183 10.257 105.453 12.337 C 106.581 13.370 103.670 15.810 104.239 18.204 C 104.710 20.175 106.928 21.858 105.666 23.943 C 104.781 25.404 105.433 29.260 107.451 30.495 C 107.769 30.690 108.056 30.778 108.207 30.562 C 108.870 29.612 106.201 26.014 106.993 24.698 C 109.449 20.623 104.327 19.243 106.732 15.254 C 112.139 6.288 99.579 8.536 94.013 17.126 C 91.526 20.962 91.196 27.892 93.716 31.866 C 95.269 34.313 97.121 36.083 98.081 36.889 L 98.081 36.889 L 98.081 36.889 L 98.081 36.889 L 98.081 36.889 L 98.081 36.889 L 98.081 36.889 L 98.081 36.889 L 98.081 36.889 Z " transform="matrix(2.599111557006836, 0, 0, 2.599111557006836, 0, 0)"/>
  <path id="ID0.799437502399087" fill="#272525" d="M 87.931 43.037 L 87.328 44.088 C 96.009 45.605 101.212 40.515 101.087 37.994 C 101.043 37.106 100.197 35.682 99.411 36.906 C 97.825 39.375 96.205 43.208 87.931 43.037 L 87.931 43.037 L 87.931 43.037 L 87.931 43.037 L 87.931 43.037 L 87.931 43.037 L 87.931 43.037 L 87.931 43.037 L 87.931 43.037 Z " transform="matrix(2.599111557006836, 0, 0, 2.599111557006836, 0, 0)"/>
  <path id="ID0.3204877767711878" fill="#272525" d="M 75.449 69.151 C 86.880 76.424 79.279 86.383 82.154 89.132 C 86.185 92.987 91.076 83.560 89.982 77.790 C 88.235 68.591 78.445 64.978 78.445 64.978 C 78.445 64.978 75.426 67.774 75.449 69.151 L 75.449 69.151 L 75.449 69.151 L 75.449 69.151 L 75.449 69.151 L 75.449 69.151 L 75.449 69.151 L 75.449 69.151 L 75.449 69.151 Z " transform="matrix(2.599111557006836, 0, 0, 2.599111557006836, -11.7, 2.45)"/>
  <path id="ID0.6369192353449762" fill="#FF0000" d="M 78.528 66.906 L 77.123 68.558 C 79.632 70.043 82.162 72.316 83.596 75.660 C 85.098 79.161 82.875 87.041 84.285 87.158 C 88 87.469 92.297 73.341 78.528 66.906 L 78.528 66.906 L 78.528 66.906 L 78.528 66.906 L 78.528 66.906 L 78.528 66.906 L 78.528 66.906 L 78.528 66.906 L 78.528 66.906 Z " transform="matrix(2.599111557006836, 0, 0, 2.599111557006836, -11.7, 2.45)"/>
  <path id="ID0.01210848893970251" fill="#272525" d="M 78.898 63.843 C 92.420 63.008 92.127 75.533 96.068 76.068 C 101.596 76.817 100.011 66.314 95.734 62.292 C 88.915 55.876 78.869 58.707 78.869 58.707 C 78.869 58.707 78.071 62.744 78.898 63.843 L 78.898 63.843 L 78.898 63.843 L 78.898 63.843 L 78.898 63.843 L 78.898 63.843 L 78.898 63.843 L 78.898 63.843 L 78.898 63.843 Z " transform="matrix(2.3511383533477783, 1.1079391241073608, -1.1079391241073608, 2.3511383533477783, 88.9, -71.6)"/>
  <path id="ID0.13413950521498919" fill="#FF0000" d="M 80.070 60.218 L 79.905 62.380 C 82.807 62.108 86.190 62.459 89.314 64.320 C 92.588 66.270 95.420 73.951 96.631 73.216 C 99.819 71.286 94.991 57.330 80.070 60.218 L 80.070 60.218 L 80.070 60.218 L 80.070 60.218 L 80.070 60.218 L 80.070 60.218 L 80.070 60.218 L 80.070 60.218 L 80.070 60.218 Z " transform="matrix(2.3511383533477783, 1.1079391241073608, -1.1079391241073608, 2.3511383533477783, 88.9, -71.6)"/>
  <path id="ID0.6875393860973418" fill="#FF0000" d="M 48.983 46.543 C 44.332 49.041 40.905 50.558 35.666 49.678 C 32.336 49.091 30.133 47.817 28.224 44.978 C 27.196 43.460 27.317 41.027 25.482 41.061 C 14.809 41.256 3.989 34.500 1.590 23.043 C 0.757 18.931 1.247 15.063 2.569 11.097 C 4.674 4.683 8.836 1.647 15.593 2.480 C 18.481 2.822 17.306 7.621 18.237 10.313 C 19.167 13.006 21.958 13.300 22.741 15.993 C 23.231 17.707 22.447 18.882 22.349 20.693 C 22.153 24.218 26.363 26.079 25.678 29.114 C 29.889 27.449 27.049 25.490 27.049 23.043 C 27.049 20.791 28.567 19.616 28.420 17.363 C 28.273 15.111 26.755 13.936 27.049 11.684 C 35.617 10.998 43.206 19.567 41.150 27.939 C 39.975 32.640 31.065 36.850 34.883 39.690 C 38.604 42.481 42.766 44.390 47.025 42.628 C 47.172 44.634 47.808 44.978 48.983 46.543 L 48.983 46.543 L 48.983 46.543 L 48.983 46.543 L 48.983 46.543 L 48.983 46.543 L 48.983 46.543 L 48.983 46.543 L 48.983 46.543 Z " transform="matrix(2.599111557006836, 0, 0, 2.599111557006836, 0, 0)"/>
  <path id="ID0.6489166100509465" fill="#272525" d="M 22.984 21.232 C 23.033 24.912 27.177 24.242 26.357 28.927 C 26.249 29.541 26.513 30.270 25.872 30.685 C 24.908 30.317 25.652 28.701 25.194 27.649 C 23.928 24.743 21.185 25.530 20.483 22.545 C 19.805 19.668 23.066 15.791 20.115 13.770 C 19.146 13.106 18.126 13.030 17.569 11.833 C 16.332 9.179 18.688 6.530 15.647 4.374 C 13.360 2.752 11.041 3.446 8.761 4.844 C -2.364 11.666 3.948 35.290 19.179 38.923 C 21.370 39.446 24.064 39.223 26.299 39.056 C 32.729 51.524 43.358 48.934 47.922 46.699 C 48.791 46.273 48.130 47.036 49.293 47.419 C 44.716 51.927 29.798 53.364 25.341 41.974 C 9.645 43.505 2.310 32.022 0.492 23.164 C -1.415 13.871 2.102 2.200 13.092 0.067 C 15.195 -0.341 18.057 1.135 19.206 3.579 C 20.681 6.718 17.158 10.659 21.809 12.615 C 25.975 14.366 22.960 19.377 22.984 21.232 L 22.984 21.232 L 22.984 21.232 L 22.984 21.232 L 22.984 21.232 L 22.984 21.232 L 22.984 21.232 L 22.984 21.232 L 22.984 21.232 Z " transform="matrix(2.599111557006836, 0, 0, 2.599111557006836, 0, 0)"/>
  <path id="ID0.9132488328032196" fill="#272525" d="M 35.815 36.887 C 34.855 37.693 33.690 35.788 34.842 34.986 C 40.091 31.328 41.196 26.111 39.367 20.147 C 38.362 16.865 30.713 10.255 28.444 12.335 C 27.317 13.367 30.228 15.808 29.658 18.201 C 29.188 20.173 26.969 21.855 28.231 23.941 C 29.116 25.402 28.465 29.258 26.446 30.493 C 26.128 30.688 25.841 30.776 25.690 30.560 C 25.026 29.610 27.696 26.011 26.903 24.696 C 24.448 20.622 29.570 19.241 27.164 15.252 C 21.757 6.286 34.317 8.534 39.884 17.124 C 42.371 20.960 42.701 27.889 40.180 31.864 C 38.628 34.310 36.776 36.081 35.815 36.887 L 35.815 36.887 L 35.815 36.887 L 35.815 36.887 L 35.815 36.887 L 35.815 36.887 L 35.815 36.887 L 35.815 36.887 L 35.815 36.887 Z " transform="matrix(2.599111557006836, 0, 0, 2.599111557006836, 0, 0)"/>
  <path id="ID0.347795610781759" fill="#272525" d="M 45.966 43.035 L 46.569 44.085 C 37.887 45.602 32.685 40.513 32.810 37.992 C 32.854 37.104 33.700 35.680 34.486 36.904 C 36.071 39.374 37.691 43.207 45.966 43.035 L 45.966 43.035 L 45.966 43.035 L 45.966 43.035 L 45.966 43.035 L 45.966 43.035 L 45.966 43.035 L 45.966 43.035 L 45.966 43.035 Z " transform="matrix(2.599111557006836, 0, 0, 2.599111557006836, 0, 0)"/>
  <path id="ID0.2128263027407229" fill="#272525" d="M 47.665 15.446 C 43.614 9.123 52.496 0.486 58.242 5.576 C 66.717 13.085 54.250 25.725 47.665 15.446 L 47.665 15.446 L 47.665 15.446 L 47.665 15.446 L 47.665 15.446 L 47.665 15.446 L 47.665 15.446 L 47.665 15.446 L 47.665 15.446 Z " transform="matrix(2.599111557006836, 0, 0, 2.599111557006836, 0, 0)"/>
  <path id="ID0.8055465533398092" fill="#FFFFFF" d="M 59.123 11.746 C 59.242 12.953 59.004 13.887 58.417 14.859 C 55.948 18.945 50.544 17.061 49.662 12.744 C 48.091 5.048 58.362 4.034 59.123 11.746 L 59.123 11.746 L 59.123 11.746 L 59.123 11.746 L 59.123 11.746 L 59.123 11.746 L 59.123 11.746 L 59.123 11.746 L 59.123 11.746 Z " transform="matrix(2.599111557006836, 0, 0, 2.599111557006836, 0, 0)"/>
  <path id="ID0.6909597716294229" fill="#272525" d="M 54.369 6.299 C 55.882 6.299 57.111 7.528 57.111 9.041 C 57.111 10.554 55.882 11.783 54.369 11.783 C 52.856 11.783 51.627 10.554 51.627 9.041 C 51.627 7.528 52.856 6.299 54.369 6.299 L 54.369 6.299 L 54.369 6.299 L 54.369 6.299 L 54.369 6.299 L 54.369 6.299 L 54.369 6.299 L 54.369 6.299 Z " transform="matrix(2.599111557006836, 0, 0, 2.599111557006836, 0, 0)"/>
  <path id="ID0.43561775609850883" fill="#272525" d="M 67.188 28.821 C 74.772 28.821 82.348 29.955 86.874 33.090 C 91.313 36.164 90.786 42.624 86.874 47.603 C 82.552 53.103 80.181 67.058 78.179 69.458 C 75.664 72.474 71.447 72.783 67.188 72.787 C 62.830 72.783 58.612 72.474 56.098 69.458 C 54.097 67.058 51.725 53.103 47.403 47.603 C 43.491 42.624 42.965 36.165 47.403 33.090 C 51.929 29.956 59.506 28.821 67.090 28.821 L 67.188 28.821 L 67.188 28.821 L 67.188 28.821 L 67.188 28.821 L 67.188 28.821 L 67.188 28.821 L 67.188 28.821 L 67.188 28.821 L 67.188 28.821 Z " transform="matrix(2.599111557006836, 0, 0, 2.599111557006836, 0, 0)"/>
  <path id="ID0.7181078880093992" fill="#FF0000" d="M 67.137 31.073 C 74.961 31.035 85.075 34.002 86.194 38.319 C 87.158 42.038 85.420 45.363 83.374 48.306 C 79.889 53.323 78.888 60.217 76.181 65.228 C 74.351 68.618 70.627 70.185 67.138 70.045 C 63.650 70.185 59.926 68.617 58.095 65.228 C 55.390 60.217 53.920 53.323 50.434 48.306 C 48.389 45.363 46.650 42.037 47.614 38.319 C 48.731 34.001 59.313 31.035 67.137 31.073 L 67.137 31.073 L 67.137 31.073 L 67.137 31.073 L 67.137 31.073 L 67.137 31.073 L 67.137 31.073 L 67.137 31.073 L 67.137 31.073 Z " transform="matrix(2.599111557006836, 0, 0, 2.599111557006836, 0, 0)"/>
  <path id="ID0.3276853393763304" fill="#272525" d="M 84.024 7.688 C 88.295 13.866 79.718 22.808 73.798 17.920 C 65.066 10.713 77.084 -2.354 84.024 7.688 L 84.024 7.688 L 84.024 7.688 L 84.024 7.688 L 84.024 7.688 L 84.024 7.688 L 84.024 7.688 L 84.024 7.688 L 84.024 7.688 Z " transform="matrix(2.599111557006836, 0, 0, 2.599111557006836, 0, 0)"/>
  <path id="ID0.6413746420294046" fill="#FFFFFF" d="M 73.289 11.590 C 73.129 10.388 73.333 9.446 73.887 8.454 C 76.212 4.284 81.677 5.979 82.709 10.263 C 84.549 17.899 74.319 19.271 73.289 11.590 L 73.289 11.590 L 73.289 11.590 L 73.289 11.590 L 73.289 11.590 L 73.289 11.590 L 73.289 11.590 L 73.289 11.590 L 73.289 11.590 Z " transform="matrix(2.599111557006836, 0, 0, 2.599111557006836, 0, 0)"/>
  <path id="ID0.039086727891117334" fill="#272525" d="M 78.066 5.809 C 79.579 5.809 80.808 7.038 80.808 8.551 C 80.808 10.064 79.579 11.293 78.066 11.293 C 76.553 11.293 75.324 10.064 75.324 8.551 C 75.324 7.038 76.553 5.809 78.066 5.809 L 78.066 5.809 L 78.066 5.809 L 78.066 5.809 L 78.066 5.809 L 78.066 5.809 L 78.066 5.809 L 78.066 5.809 Z " transform="matrix(2.599111557006836, 0, 0, 2.599111557006836, 0, 0)"/>
  <path id="ID0.6277780011296272" fill="none" stroke="none" d="M 158.950 197.550 C 158.950 197.550 157.600 197.550 158.050 197.550 C 158.500 197.550 171.372 199.773 178.250 197.550 C 184.743 195.451 184.698 190.610 187.900 187.900 C 188.568 187.335 189.165 188.149 189.650 187.900 C 190.050 187.694 189.484 187.323 189.650 187 C 189.816 186.677 190.517 185.532 190.550 186.150 C 190.583 186.768 191.256 198.094 190.550 203.700 C 190.276 205.878 188.566 205.880 187.900 207.200 C 187.506 207.981 188.137 208.463 187.900 208.950 C 187.714 209.332 187.338 208.662 187.050 208.950 C 186.762 209.238 186.395 210.682 185.250 211.600 C 184.105 212.518 180.606 214.815 178.250 216 C 177.468 216.393 177.173 215.837 176.500 216 C 175.827 216.163 175.720 216.778 174.750 216.850 C 173.780 216.922 168.465 217.829 165.100 216.850 C 161.808 215.892 161.293 213.979 159.800 212.500 C 159.480 212.183 160.029 211.987 159.800 211.600 C 159.571 211.213 157.904 209.292 157.200 208.100 C 156.971 207.713 157.397 207.583 157.200 207.200 C 157.003 206.817 155.750 205.795 155.400 204.600 C 155.050 203.405 155.400 202.094 155.400 201.050 " transform="matrix(1, 0, 0, 1, 1.8, -74.75)"/>
  <path id="ID0.2081833342090249" fill="none" stroke="none" d="M 153.650 201.050 C 153.650 201.050 166.858 201.749 173 201.050 C 175.166 200.804 175.442 199.520 176.500 198.450 C 177.200 197.742 176.685 197.391 177.350 196.650 C 178.015 195.909 182.454 192.065 184.400 189.650 C 184.949 188.969 183.956 188.487 184.400 187.900 C 184.844 187.313 186.335 186.865 187.050 186.150 C 187.368 185.832 187.050 185.515 187.050 185.250 " transform="matrix(1, 0, 0, 1, 1.8, -74.75)"/>
  <g id="ID0.02210929337888956" transform="matrix(1, 0, 0, 1, 0, 0)">
    <path id="ID0.6615138123743236" fill="#272525" d="M 58.812 69.148 C 47.382 76.420 54.982 86.381 52.107 89.129 C 48.075 92.984 43.184 83.557 44.279 77.787 C 46.025 68.588 55.816 64.975 55.816 64.975 C 55.816 64.975 58.835 67.771 58.812 69.148 L 58.812 69.148 L 58.812 69.148 L 58.812 69.148 L 58.812 69.148 L 58.812 69.148 L 58.812 69.148 L 58.812 69.148 L 58.812 69.148 Z " transform="matrix(2.550601005554199, 0.4998147487640381, -0.4998147487640381, 2.550601005554199, 28.2, -39.4)"/>
    <path id="ID0.19191409228369594" fill="#FF0000" d="M 55.734 66.903 L 57.138 68.554 C 54.630 70.041 52.100 72.313 50.666 75.657 C 49.164 79.158 51.387 87.037 49.977 87.155 C 46.261 87.467 41.965 73.337 55.734 66.903 L 55.734 66.903 L 55.734 66.903 L 55.734 66.903 L 55.734 66.903 L 55.734 66.903 L 55.734 66.903 L 55.734 66.903 L 55.734 66.903 Z " transform="matrix(2.550601005554199, 0.4998147487640381, -0.4998147487640381, 2.550601005554199, 28.2, -39.4)"/>
  </g>
</svg>